<svg xmlns="http://www.w3.org/2000/svg" width="72" height="72" viewBox="0 0 72 72">
    <g fill="none" fill-rule="evenodd">
        <path fill="#6B7179" fill-rule="nonzero" d="M35.986 7.667C20.332 7.667 7.666 20.346 7.666 36c0 15.654 12.666 28.333 28.32 28.333S64.333 51.654 64.333 36c0-15.654-12.693-28.333-28.347-28.333zm.014 51c-12.523 0-22.667-10.144-22.667-22.667 0-12.523 10.144-22.667 22.667-22.667 12.523 0 22.667 10.144 22.667 22.667 0 12.523-10.144 22.667-22.667 22.667z"/>
        <path d="M2 2h68v68H2z"/>
        <path fill="#6B7179" fill-rule="nonzero" d="M37.417 21.833h-4.25v17l14.86 8.925 2.14-3.485-12.75-7.565z"/>
    </g>
</svg>
